<?xml version="1.0" encoding="UTF-8" standalone="no"?>
<!-- Created with Inkscape (http://www.inkscape.org/) -->

<svg
   xmlns:dc="http://purl.org/dc/elements/1.1/"
   xmlns:cc="http://creativecommons.org/ns#"
   xmlns:rdf="http://www.w3.org/1999/02/22-rdf-syntax-ns#"
   xmlns:svg="http://www.w3.org/2000/svg"
   xmlns="http://www.w3.org/2000/svg"
   xmlns:sodipodi="http://sodipodi.sourceforge.net/DTD/sodipodi-0.dtd"
   xmlns:inkscape="http://www.inkscape.org/namespaces/inkscape"
   width="13.229166mm"
   height="13.229166mm"
   viewBox="0 0 13.229166 13.229166"
   version="1.1"
   id="svg8"
   inkscape:version="0.92.1 r"
   sodipodi:docname="questionMark.svg">
  <defs
     id="defs2" />
  <sodipodi:namedview
     id="base"
     pagecolor="#ffffff"
     bordercolor="#666666"
     borderopacity="1.0"
     inkscape:pageopacity="0.0"
     inkscape:pageshadow="2"
     inkscape:zoom="5.6568543"
     inkscape:cx="73.151577"
     inkscape:cy="28.498334"
     inkscape:document-units="mm"
     inkscape:current-layer="layer1"
     showgrid="false"
     inkscape:measure-start="0,0"
     inkscape:measure-end="0,0"
     inkscape:snap-nodes="false"
     fit-margin-top="0"
     fit-margin-left="0"
     fit-margin-right="0"
     fit-margin-bottom="0"
     inkscape:window-width="2560"
     inkscape:window-height="1025"
     inkscape:window-x="0"
     inkscape:window-y="31"
     inkscape:window-maximized="1" />
  <metadata
     id="metadata5">
    <rdf:RDF>
      <cc:Work
         rdf:about="">
        <dc:format>image/svg+xml</dc:format>
        <dc:type
           rdf:resource="http://purl.org/dc/dcmitype/StillImage" />
        <dc:title></dc:title>
      </cc:Work>
    </rdf:RDF>
  </metadata>
  <g
     inkscape:label="Layer 1"
     inkscape:groupmode="layer"
     id="layer1"
     transform="translate(30.68006,-0.54885575)">
    <path
       style="opacity:1;fill:#14364a;fill-opacity:1;stroke:none;stroke-width:0.29029053;stroke-miterlimit:4;stroke-dasharray:none;stroke-opacity:1"
       d="m 11.606093,0.82552254 c -0.368885,-0.36888639 -0.962136,-0.36888639 -1.331024,0 l -7.9069657,7.90696566 -0.017033,0.017006 -0.6083824,0.6083812 0.004,0.00411 -0.75772186,4.4160346 4.41603426,-0.757721 0.00302,0.003 0.00502,-0.0049 0.001,-0.001 0.6023692,-0.602369 0.017033,-0.01701 7.9069645,-7.9069645 c 0.368887,-0.3688863 0.368887,-0.962138 0,-1.3310244 z"
       id="rect4485"
       inkscape:connector-curvature="0" />
    <path
       inkscape:connector-curvature="0"
       id="rect4546"
       d="m 11.595258,1.5165593 1.163743,1.1637422 c 0.212909,0.2129094 0.191058,0.5775711 -0.04899,0.8176232 L 12.460448,3.7474844 C 12.220395,3.987537 11.855744,4.0093967 11.642825,3.7964775 L 10.479082,2.6327354 C 10.266173,2.419826 10.288026,2.0551662 10.528077,1.8151143 l 0.24956,-0.2495597 c 0.240053,-0.2400529 0.604704,-0.2619125 0.817621,-0.048995 z"
       style="opacity:1;fill:#ffffff;fill-opacity:1;stroke:none;stroke-width:0.17405948;stroke-miterlimit:4;stroke-dasharray:none;stroke-opacity:1" />
    <path
       sodipodi:nodetypes="ccccc"
       inkscape:connector-curvature="0"
       id="path4557"
       d="m 2.220378,10.410193 0.7305027,0.734133 0.9146573,0.911027 -1.9858847,0.340721 z"
       style="opacity:1;fill:#ffffff;fill-opacity:1;stroke:none;stroke-width:0.06554805;stroke-miterlimit:4;stroke-dasharray:none;stroke-opacity:1" />
    <g
       id="g4527">
      <path
         style="opacity:1;fill:#14364a;fill-opacity:1;stroke:none;stroke-width:0.32473433;stroke-miterlimit:4;stroke-dasharray:none;stroke-opacity:1"
         d="m 19.202936,1.2664246 h 7.46271 c 0.298152,0 0.538177,0.2400252 0.538177,0.5381761 0,0.298149 -0.240037,0.538176 -0.538177,0.538176 h -7.46271 c -0.298152,0 -0.538175,-0.2400252 -0.538175,-0.538176 0,-0.2981491 0.240038,-0.5381761 0.538175,-0.5381761 z"
         id="rect4597"
         inkscape:connector-curvature="0" />
      <path
         style="opacity:1;fill:#14364a;fill-opacity:1;stroke:none;stroke-width:0.32473433;stroke-miterlimit:4;stroke-dasharray:none;stroke-opacity:1"
         d="m 21.660609,0.54885583 h 2.296216 c 0.268328,0 0.484361,0.21602452 0.484361,0.48435867 0,0.2683338 -0.216012,0.4843587 -0.484361,0.4843587 h -2.296216 c -0.268328,0 -0.484359,-0.2160246 -0.484359,-0.4843587 0,-0.26833385 0.216013,-0.48435867 0.484359,-0.48435867 z"
         id="rect4599"
         inkscape:connector-curvature="0" />
      <path
         style="opacity:1;fill:#ffffff;fill-opacity:1;stroke:none;stroke-width:0.14217922;stroke-miterlimit:4;stroke-dasharray:none;stroke-opacity:1"
         d="m 22.031355,0.9793983 h 1.554733 c 0.08944,0 0.161457,0.0720082 0.161457,0.1614538 0,0.089446 -0.07202,0.1614538 -0.161457,0.1614538 h -1.554733 c -0.08944,0 -0.161457,-0.072008 -0.161457,-0.1614538 0,-0.089446 0.07202,-0.1614538 0.161457,-0.1614538 z"
         id="rect4601"
         inkscape:connector-curvature="0" />
      <path
         style="opacity:1;fill:#14364a;fill-opacity:1;stroke:none;stroke-width:0.08621113;stroke-miterlimit:4;stroke-dasharray:none;stroke-opacity:1"
         d="m 19.997758,1.6004838 h 5.87307 c 0.63255,0 1.14179,0.5092384 1.14179,1.1417901 v 9.8939581 c 0,0.632554 -0.50924,1.14179 -1.14179,1.14179 h -5.87307 c -0.632553,0 -1.14179,-0.509236 -1.14179,-1.14179 V 2.7422739 c 0,-0.6325517 0.509237,-1.1417901 1.14179,-1.1417901 z"
         id="rect4589"
         inkscape:connector-curvature="0" />
      <g
         transform="matrix(3.0683557,0,0,3.0683557,-26.01161,-24.901642)"
         id="g4614">
        <path
           style="opacity:1;fill:#1e5676;fill-opacity:1;stroke:none;stroke-width:0.09095524;stroke-miterlimit:4;stroke-dasharray:none;stroke-opacity:1"
           d="m 15.419801,9.2009115 c 0.200816,0 0.362484,0.1858498 0.362484,0.4167035 v 2.008002 c 0,0.230854 -0.161668,0.416703 -0.362484,0.416703 -0.200816,0 -0.362484,-0.185849 -0.362484,-0.416703 V 9.617615 c 0,-0.2308537 0.161668,-0.4167035 0.362484,-0.4167035 z"
           id="rect4608"
           inkscape:connector-curvature="0" />
        <path
           style="opacity:1;fill:#1e5676;fill-opacity:1;stroke:none;stroke-width:0.09095524;stroke-miterlimit:4;stroke-dasharray:none;stroke-opacity:1"
           d="m 16.483868,9.2009115 c 0.200816,0 0.362484,0.1858498 0.362484,0.4167035 v 2.008002 c 0,0.230854 -0.161668,0.416703 -0.362484,0.416703 -0.200816,0 -0.362484,-0.185849 -0.362484,-0.416703 V 9.617615 c 0,-0.2308537 0.161668,-0.4167035 0.362484,-0.4167035 z"
           id="rect4610"
           inkscape:connector-curvature="0" />
      </g>
    </g>
    <g
       transform="matrix(0.69102133,0,0,0.69102133,-40.835762,-58.25951)"
       id="g4508">
      <circle
         transform="rotate(-30)"
         r="6.3311014"
         cy="101.99333"
         cx="-6.2119026"
         id="path4485"
         style="opacity:1;fill:#1e5676;fill-opacity:1;stroke:none;stroke-width:0.10583334;stroke-miterlimit:4;stroke-dasharray:none;stroke-opacity:1" />
      <circle
         transform="rotate(-30)"
         style="opacity:1;fill:#ffffff;fill-opacity:1;stroke:none;stroke-width:0.07029229;stroke-miterlimit:4;stroke-dasharray:none;stroke-opacity:1"
         id="circle4487"
         cx="-6.2119026"
         cy="101.99333"
         r="4.2049856" />
      <rect
         transform="rotate(-30)"
         ry="0.85081375"
         y="107.1154"
         x="-6.8862162"
         height="9.642561"
         width="2.1261141"
         id="rect4489"
         style="opacity:1;fill:#1f5776;fill-opacity:1;stroke:none;stroke-width:0.0946807;stroke-miterlimit:4;stroke-dasharray:none;stroke-opacity:1" />
    </g>
    <path
       style="opacity:1;fill:#1f5776;fill-opacity:1;stroke:none;stroke-width:0.11253311;stroke-miterlimit:4;stroke-dasharray:none;stroke-opacity:1"
       d="m -24.065477,0.54885575 a 6.6144999,6.6144999 0 0 0 -6.614583,6.61458325 6.6144999,6.6144999 0 0 0 6.614583,6.614583 6.6144999,6.6144999 0 0 0 6.614583,-6.614583 6.6144999,6.6144999 0 0 0 -6.614583,-6.61458325 z m -0.125058,1.42523605 c 0.431633,0 0.818756,0.060713 1.162204,0.1813843 0.348093,0.1160302 0.642842,0.2852013 0.884184,0.5079793 0.241342,0.222778 0.427117,0.4967704 0.55707,0.8216552 0.129955,0.3202434 0.19482,0.6819367 0.19482,1.0857218 0,0.3109611 -0.03217,0.5896237 -0.09715,0.8356079 -0.06034,0.2413431 -0.153223,0.4665567 -0.278538,0.6754111 -0.125314,0.2088542 -0.280987,0.410717 -0.466637,0.6056477 -0.185648,0.1949307 -0.403601,0.4014636 -0.654225,0.6196004 -0.241342,0.2088542 -0.438534,0.3920358 -0.591696,0.5498373 -0.153156,0.1531596 -0.274068,0.3041668 -0.362251,0.4526856 -0.08819,0.1438775 -0.148379,0.2922908 -0.180867,0.4454507 -0.03248,0.1531596 -0.04857,0.3316713 -0.04857,0.5358847 v 0.1255736 h -0.967901 V 9.1586661 c 0,-0.2645487 0.01609,-0.5032565 0.04858,-0.716752 0.03713,-0.2134957 0.09992,-0.4132815 0.188101,-0.5989299 0.09283,-0.1856483 0.21581,-0.3667535 0.368972,-0.5431194 0.153159,-0.1810071 0.345683,-0.3688591 0.577741,-0.5637898 0.222777,-0.1902897 0.413221,-0.3620543 0.571024,-0.5152141 0.1578,-0.1578012 0.285459,-0.3155551 0.382923,-0.473356 0.102108,-0.1624425 0.176313,-0.3342069 0.222727,-0.5152141 0.05105,-0.1856484 0.07648,-0.4015216 0.07648,-0.6475058 0,-0.2227779 -0.03477,-0.4246404 -0.104386,-0.6056477 -0.06962,-0.1856483 -0.171847,-0.3434022 -0.306443,-0.4733561 -0.129953,-0.134595 -0.294455,-0.2363063 -0.494025,-0.3059245 -0.194934,-0.074259 -0.422222,-0.1116211 -0.68213,-0.1116211 -0.38522,0 -0.752099,0.060196 -1.10019,0.1808675 -0.348091,0.1206714 -0.684356,0.2602611 -1.009243,0.4180624 L -26.7387,2.677408 c 0.375939,-0.1949309 0.782259,-0.3594316 1.218531,-0.4940267 0.436274,-0.1392362 0.879438,-0.2092895 1.329634,-0.2092895 z m -0.299723,8.5839722 c 0.120672,0 0.234834,0.01868 0.34158,0.05581 0.11139,0.03249 0.206354,0.08801 0.285255,0.166915 0.0789,0.07426 0.14169,0.174411 0.188103,0.299724 0.04641,0.120671 0.06925,0.269085 0.06925,0.44545 0,0.171725 -0.02283,0.320139 -0.06925,0.445451 -0.04641,0.120672 -0.109204,0.220307 -0.188103,0.299207 -0.0789,0.0789 -0.173865,0.137019 -0.285255,0.174149 -0.106746,0.03713 -0.220908,0.05581 -0.34158,0.05581 -0.125312,0 -0.241035,-0.01868 -0.347784,-0.05581 -0.106746,-0.03713 -0.199633,-0.09525 -0.278535,-0.174149 -0.0789,-0.0789 -0.141689,-0.178535 -0.188102,-0.299207 -0.04641,-0.125312 -0.06976,-0.273726 -0.06976,-0.445451 0,-0.176365 0.02335,-0.324779 0.06976,-0.44545 0.04641,-0.125313 0.109201,-0.225465 0.188102,-0.299724 0.0789,-0.0789 0.171789,-0.134427 0.278535,-0.166915 0.106749,-0.03713 0.222472,-0.05581 0.347784,-0.05581 z"
       id="path4504"
       inkscape:connector-curvature="0" />
  </g>
</svg>
