<?xml version="1.0" encoding="UTF-8" standalone="no"?>
<!-- Created with Inkscape (http://www.inkscape.org/) -->

<svg
   xmlns:dc="http://purl.org/dc/elements/1.1/"
   xmlns:cc="http://creativecommons.org/ns#"
   xmlns:rdf="http://www.w3.org/1999/02/22-rdf-syntax-ns#"
   xmlns:svg="http://www.w3.org/2000/svg"
   xmlns="http://www.w3.org/2000/svg"
   xmlns:sodipodi="http://sodipodi.sourceforge.net/DTD/sodipodi-0.dtd"
   xmlns:inkscape="http://www.inkscape.org/namespaces/inkscape"
   width="10.130398mm"
   height="13.229mm"
   viewBox="0 0 10.130398 13.229"
   version="1.1"
   id="svg8"
   inkscape:version="0.92.1 r"
   sodipodi:docname="search.svg">
  <defs
     id="defs2" />
  <sodipodi:namedview
     id="base"
     pagecolor="#ffffff"
     bordercolor="#666666"
     borderopacity="1.0"
     inkscape:pageopacity="0.0"
     inkscape:pageshadow="2"
     inkscape:zoom="5.6568543"
     inkscape:cx="8.9310059"
     inkscape:cy="26.492451"
     inkscape:document-units="mm"
     inkscape:current-layer="layer1"
     showgrid="false"
     inkscape:measure-start="0,0"
     inkscape:measure-end="0,0"
     inkscape:snap-nodes="false"
     fit-margin-top="0"
     fit-margin-left="0"
     fit-margin-right="0"
     fit-margin-bottom="0"
     inkscape:window-width="2560"
     inkscape:window-height="1025"
     inkscape:window-x="0"
     inkscape:window-y="31"
     inkscape:window-maximized="1" />
  <metadata
     id="metadata5">
    <rdf:RDF>
      <cc:Work
         rdf:about="">
        <dc:format>image/svg+xml</dc:format>
        <dc:type
           rdf:resource="http://purl.org/dc/dcmitype/StillImage" />
        <dc:title></dc:title>
      </cc:Work>
    </rdf:RDF>
  </metadata>
  <g
     inkscape:label="Layer 1"
     inkscape:groupmode="layer"
     id="layer1"
     transform="translate(13.688368,-0.0182987)">
    <path
       style="opacity:1;fill:#14364a;fill-opacity:1;stroke:none;stroke-width:0.29029053;stroke-miterlimit:4;stroke-dasharray:none;stroke-opacity:1"
       d="m 11.606093,0.33516346 c -0.368885,-0.36888639 -0.962136,-0.36888639 -1.331024,0 l -7.9069657,7.90696564 -0.017033,0.017006 -0.6083824,0.6083812 0.004,0.00411 -0.75772186,4.4160347 4.41603426,-0.757721 0.00302,0.003 0.00502,-0.0049 0.001,-0.001 0.6023692,-0.602369 0.017033,-0.01701 7.9069645,-7.9069646 c 0.368887,-0.3688863 0.368887,-0.962138 0,-1.3310244 z"
       id="rect4485"
       inkscape:connector-curvature="0" />
    <path
       inkscape:connector-curvature="0"
       id="rect4546"
       d="m 11.595258,1.5165593 1.163743,1.1637422 c 0.212909,0.2129094 0.191058,0.5775711 -0.04899,0.8176232 L 12.460448,3.7474844 C 12.220395,3.987537 11.855744,4.0093967 11.642825,3.7964775 L 10.479082,2.6327354 C 10.266173,2.419826 10.288026,2.0551662 10.528077,1.8151143 l 0.24956,-0.2495597 c 0.240053,-0.2400529 0.604704,-0.2619125 0.817621,-0.048995 z"
       style="opacity:1;fill:#ffffff;fill-opacity:1;stroke:none;stroke-width:0.17405948;stroke-miterlimit:4;stroke-dasharray:none;stroke-opacity:1" />
    <path
       sodipodi:nodetypes="ccccc"
       inkscape:connector-curvature="0"
       id="path4557"
       d="m 2.220378,10.410193 0.7305027,0.734133 0.9146573,0.911027 -1.9858847,0.340721 z"
       style="opacity:1;fill:#ffffff;fill-opacity:1;stroke:none;stroke-width:0.06554805;stroke-miterlimit:4;stroke-dasharray:none;stroke-opacity:1" />
    <path
       inkscape:connector-curvature="0"
       id="rect4597"
       d="m 19.202936,1.2664246 h 7.46271 c 0.298152,0 0.538177,0.2400252 0.538177,0.5381761 0,0.298149 -0.240037,0.538176 -0.538177,0.538176 h -7.46271 c -0.298152,0 -0.538175,-0.2400252 -0.538175,-0.538176 0,-0.2981491 0.240038,-0.5381761 0.538175,-0.5381761 z"
       style="opacity:1;fill:#14364a;fill-opacity:1;stroke:none;stroke-width:0.32473433;stroke-miterlimit:4;stroke-dasharray:none;stroke-opacity:1" />
    <path
       inkscape:connector-curvature="0"
       id="rect4599"
       d="m 21.660609,0.54885583 h 2.296216 c 0.268328,0 0.484361,0.21602452 0.484361,0.48435867 0,0.2683338 -0.216012,0.4843587 -0.484361,0.4843587 h -2.296216 c -0.268328,0 -0.484359,-0.2160246 -0.484359,-0.4843587 0,-0.26833385 0.216013,-0.48435867 0.484359,-0.48435867 z"
       style="opacity:1;fill:#14364a;fill-opacity:1;stroke:none;stroke-width:0.32473433;stroke-miterlimit:4;stroke-dasharray:none;stroke-opacity:1" />
    <path
       inkscape:connector-curvature="0"
       id="rect4601"
       d="m 22.031355,0.9793983 h 1.554733 c 0.08944,0 0.161457,0.0720082 0.161457,0.1614538 0,0.089446 -0.07202,0.1614538 -0.161457,0.1614538 h -1.554733 c -0.08944,0 -0.161457,-0.072008 -0.161457,-0.1614538 0,-0.089446 0.07202,-0.1614538 0.161457,-0.1614538 z"
       style="opacity:1;fill:#ffffff;fill-opacity:1;stroke:none;stroke-width:0.14217922;stroke-miterlimit:4;stroke-dasharray:none;stroke-opacity:1" />
    <path
       inkscape:connector-curvature="0"
       id="rect4589"
       d="m 19.997758,1.6004838 h 5.87307 c 0.63255,0 1.14179,0.5092384 1.14179,1.1417901 v 9.8939581 c 0,0.632554 -0.50924,1.14179 -1.14179,1.14179 h -5.87307 c -0.632553,0 -1.14179,-0.509236 -1.14179,-1.14179 V 2.7422739 c 0,-0.6325517 0.509237,-1.1417901 1.14179,-1.1417901 z"
       style="opacity:1;fill:#14364a;fill-opacity:1;stroke:none;stroke-width:0.08621113;stroke-miterlimit:4;stroke-dasharray:none;stroke-opacity:1" />
    <g
       id="g4614"
       transform="matrix(3.0683557,0,0,3.0683557,-26.01161,-24.901642)">
      <path
         inkscape:connector-curvature="0"
         id="rect4608"
         d="m 15.419801,9.2009115 c 0.200816,0 0.362484,0.1858498 0.362484,0.4167035 v 2.008002 c 0,0.230854 -0.161668,0.416703 -0.362484,0.416703 -0.200816,0 -0.362484,-0.185849 -0.362484,-0.416703 V 9.617615 c 0,-0.2308537 0.161668,-0.4167035 0.362484,-0.4167035 z"
         style="opacity:1;fill:#1e5676;fill-opacity:1;stroke:none;stroke-width:0.09095524;stroke-miterlimit:4;stroke-dasharray:none;stroke-opacity:1" />
      <path
         inkscape:connector-curvature="0"
         id="rect4610"
         d="m 16.483868,9.2009115 c 0.200816,0 0.362484,0.1858498 0.362484,0.4167035 v 2.008002 c 0,0.230854 -0.161668,0.416703 -0.362484,0.416703 -0.200816,0 -0.362484,-0.185849 -0.362484,-0.416703 V 9.617615 c 0,-0.2308537 0.161668,-0.4167035 0.362484,-0.4167035 z"
         style="opacity:1;fill:#1e5676;fill-opacity:1;stroke:none;stroke-width:0.09095524;stroke-miterlimit:4;stroke-dasharray:none;stroke-opacity:1" />
    </g>
    <g
       transform="matrix(0.69102133,0,0,0.69102133,-40.835762,-58.79015)"
       id="g4508">
      <circle
         transform="rotate(-30)"
         r="6.3311014"
         cy="101.99333"
         cx="-6.2119026"
         id="path4485"
         style="opacity:1;fill:#1e5676;fill-opacity:1;stroke:none;stroke-width:0.10583334;stroke-miterlimit:4;stroke-dasharray:none;stroke-opacity:1" />
      <circle
         transform="rotate(-30)"
         style="opacity:1;fill:#ffffff;fill-opacity:1;stroke:none;stroke-width:0.07029229;stroke-miterlimit:4;stroke-dasharray:none;stroke-opacity:1"
         id="circle4487"
         cx="-6.2119026"
         cy="101.99333"
         r="4.2049856" />
      <rect
         transform="rotate(-30)"
         ry="0.85081375"
         y="107.1154"
         x="-6.8862162"
         height="9.642561"
         width="2.1261141"
         id="rect4489"
         style="opacity:1;fill:#1f5776;fill-opacity:1;stroke:none;stroke-width:0.0946807;stroke-miterlimit:4;stroke-dasharray:none;stroke-opacity:1" />
    </g>
  </g>
</svg>
